<?xml version="1.0" standalone="no"?>
<!DOCTYPE svg PUBLIC "-//W3C//DTD SVG 20010904//EN"
 "http://www.w3.org/TR/2001/REC-SVG-20010904/DTD/svg10.dtd">
<svg version="1.0" xmlns="http://www.w3.org/2000/svg"
 width="400.000000pt" height="420.000000pt" viewBox="0 0 400.000000 420.000000"
 preserveAspectRatio="xMidYMid meet">

<g transform="translate(0.000000,420.000000) scale(0.100000,-0.100000)"
fill="#000000" stroke="none">
<path d="M919 3090 c-70 -9 -187 -44 -216 -65 -19 -13 -23 -26 -23 -66 0 -34
5 -51 14 -55 8 -3 52 7 98 23 108 37 252 40 308 8 49 -29 73 -82 78 -179 4
-68 3 -78 -11 -73 -41 16 -187 29 -255 23 -125 -10 -221 -68 -268 -162 -26
-53 -26 -184 0 -234 23 -44 73 -97 109 -117 48 -25 141 -35 210 -23 75 14 126
39 182 91 l44 40 17 -33 c19 -38 63 -88 77 -88 23 0 107 63 107 80 0 9 -10 39
-22 66 -21 45 -23 69 -28 304 -5 211 -9 262 -23 294 -44 100 -113 147 -242
166 -77 11 -75 11 -156 0z m212 -511 l52 -11 -5 -68 c-3 -40 -13 -80 -24 -99
-40 -68 -166 -121 -250 -105 -137 26 -146 238 -11 282 44 14 175 14 238 1z"/>
<path d="M2952 3085 c-103 -29 -163 -74 -198 -150 -54 -115 -9 -246 105 -308
27 -15 105 -45 174 -67 101 -32 130 -46 151 -71 52 -62 22 -152 -62 -180 -62
-22 -198 -14 -286 15 -111 38 -116 37 -116 -24 0 -65 18 -83 112 -112 105 -33
277 -32 362 1 202 80 248 327 83 438 -27 18 -103 49 -178 73 -156 49 -201 81
-201 143 0 83 55 117 184 117 61 0 102 -7 153 -24 50 -17 74 -21 83 -14 17 14
15 79 -3 105 -36 52 -259 87 -363 58z"/>
<path d="M1440 3051 c0 -11 24 -99 54 -198 30 -98 84 -277 121 -398 37 -121
73 -230 81 -242 13 -20 23 -23 88 -23 50 0 77 4 85 14 6 7 46 158 88 335 43
176 80 321 83 321 4 0 14 -35 24 -77 42 -183 135 -559 141 -575 6 -15 21 -18
91 -18 83 0 85 1 95 28 37 97 259 828 255 839 -4 9 -26 13 -75 13 -62 0 -72
-3 -85 -22 -8 -13 -51 -167 -96 -343 -45 -176 -85 -323 -89 -327 -4 -5 -42
142 -85 325 -43 182 -83 340 -88 350 -7 14 -22 17 -83 17 -66 0 -76 -2 -89
-22 -7 -13 -46 -162 -86 -333 -40 -170 -76 -319 -80 -329 -4 -13 -35 96 -89
310 -45 181 -89 339 -97 352 -13 20 -23 22 -89 22 -67 0 -75 -2 -75 -19z"/>
</g>
</svg>
